<?xml version="1.0" encoding="utf-8"?>
<!-- Generator: Adobe Illustrator 24.1.1, SVG Export Plug-In . SVG Version: 6.00 Build 0)  -->
<svg version="1.1" baseProfile="tiny" xmlns="http://www.w3.org/2000/svg" xmlns:xlink="http://www.w3.org/1999/xlink" x="0px"
	 y="0px" viewBox="0 0 1500 1500" xml:space="preserve">
<g id="Layer_1" display="none">
	<rect display="inline" fill="#FFFFFF" width="1500" height="1500"/>
</g>
<g id="Layer_2">
	<g>
		<path fill="#4D4D4D" d="M961.8,981.8h-37.9L802.8,639.1c12-12.9,19.4-30.1,19.4-49c0-39.8-32.4-72.1-72.1-72.1
			c-39.8,0-72.1,32.4-72.1,72.1c0,18.9,7.4,36.1,19.4,49L576.1,981.8h-37.9c-8,0-14.4,6.5-14.4,14.4v101c0,8,6.5,14.4,14.4,14.4
			h423.6c8,0,14.4-6.5,14.4-14.4v-101C976.2,988.3,969.8,981.8,961.8,981.8z M750,662.2c10,0,19.6-2.1,28.3-5.8l54.9,155.2H666.9
			l54.9-155.2C730.4,660.1,740,662.2,750,662.2z M750,546.8c23.9,0,43.3,19.4,43.3,43.3c0,23.9-19.4,43.3-43.3,43.3
			c-23.9,0-43.3-19.4-43.3-43.3C706.7,566.2,726.1,546.8,750,546.8z M656.7,840.4h186.7l50,141.4H606.7L656.7,840.4z M947.4,1082.8
			H552.6v-72.1h394.7V1082.8z"/>
		<path fill="#4D4D4D" d="M533.2,738.6c6.8-4.1,9-13,4.8-19.8c-47.5-78.2-47.5-179.3,0-257.5c4.1-6.8,2-15.7-4.8-19.8
			c-6.8-4.1-15.7-2-19.8,4.8c-53.8,88.6-53.8,198.8,0,287.4c2.7,4.5,7.5,6.9,12.3,6.9C528.3,740.7,530.9,740,533.2,738.6z"/>
		<path fill="#4D4D4D" d="M609.9,689.6c2.5,0,5.1-0.7,7.5-2.1c6.8-4.1,9-13,4.8-19.8c-28.6-47.2-28.6-108.1,0-155.3
			c4.1-6.8,2-15.7-4.8-19.8c-6.8-4.1-15.7-2-19.8,4.8c-34.7,57.1-34.7,128.1,0,185.2C600.2,687.2,605,689.6,609.9,689.6z"/>
		<path fill="#4D4D4D" d="M449.1,390.4c-6.8-4.1-15.7-2-19.8,4.8C393.8,453.8,375,521.1,375,590.1c0,68.9,18.8,136.3,54.3,194.8
			c2.7,4.5,7.5,6.9,12.3,6.9c2.5,0,5.1-0.7,7.5-2.1c6.8-4.1,9-13,4.8-19.8c-66.3-109.2-66.3-250.4,0-359.6
			C458.1,403.4,455.9,394.6,449.1,390.4z"/>
		<path fill="#4D4D4D" d="M966.8,441.5c-6.8,4.1-9,13-4.8,19.8c47.5,78.2,47.5,179.3,0,257.5c-4.1,6.8-2,15.7,4.8,19.8
			c2.3,1.4,4.9,2.1,7.5,2.1c4.9,0,9.6-2.5,12.3-6.9c53.8-88.6,53.8-198.8,0-287.4C982.5,439.6,973.6,437.4,966.8,441.5z"/>
		<path fill="#4D4D4D" d="M882.7,687.5c2.3,1.4,4.9,2.1,7.5,2.1c4.9,0,9.6-2.5,12.3-6.9c34.7-57.1,34.7-128.1,0-185.2
			c-4.1-6.8-13-9-19.8-4.8c-6.8,4.1-9,13-4.8,19.8c28.6,47.2,28.6,108.1,0,155.3C873.7,674.5,875.9,683.4,882.7,687.5z"/>
		<path fill="#4D4D4D" d="M1070.7,395.3c-4.1-6.8-13-9-19.8-4.8c-6.8,4.1-9,13-4.8,19.8c66.3,109.2,66.3,250.4,0,359.6
			c-4.1,6.8-2,15.7,4.8,19.8c2.3,1.4,4.9,2.1,7.5,2.1c4.9,0,9.6-2.5,12.3-6.9c35.5-58.5,54.3-125.9,54.3-194.8
			C1125,521.1,1106.2,453.8,1070.7,395.3z"/>
	</g>
	<circle fill="#66CC33" cx="750" cy="590.1" r="43.3"/>
</g>
</svg>
